<svg width="142" height="18" viewBox="0 0 142 18" fill="none" xmlns="http://www.w3.org/2000/svg">
<path fill-rule="evenodd" clip-rule="evenodd" d="M17 3.73969C16.3625 4.04897 15.6896 4.24227 14.9812 4.35825C15.6896 3.89433 16.2563 3.15979 16.5042 2.27062C15.8313 2.69588 15.0875 3.00515 14.2729 3.19845C13.6354 2.46392 12.7146 2 11.7229 2C9.81042 2 8.25208 3.70103 8.25208 5.78866C8.25208 6.09794 8.2875 6.36856 8.35833 6.63918C5.48958 6.48454 2.90417 4.9768 1.16875 2.65722C0.885417 3.23711 0.708333 3.85567 0.708333 4.55155C0.708333 5.86598 1.31042 7.02577 2.26667 7.72165C1.7 7.68299 1.16875 7.52835 0.672917 7.25773V7.29639C0.672917 9.15206 1.87708 10.6985 3.47083 11.0464C3.1875 11.1237 2.86875 11.1624 2.55 11.1624C2.3375 11.1624 2.08958 11.1237 1.87708 11.0851C2.3375 12.5928 3.6125 13.7139 5.13542 13.7139C3.93125 14.7191 2.44375 15.3376 0.814583 15.3376C0.53125 15.3376 0.247917 15.3376 0 15.299C1.55833 16.3814 3.36458 17 5.34792 17C11.7583 17 15.2646 11.201 15.2646 6.17526C15.2646 6.02062 15.2646 5.82732 15.2646 5.67268C15.9375 5.1701 16.5396 4.51289 17 3.73969Z" fill="#68D585"/>
<path d="M58.25 0H41.75C41.3358 0 41 0.335786 41 0.75V17.25C41 17.6642 41.3358 18 41.75 18H50.6144V11.0295H48.2686V8.3129H50.6144V6.30952C50.6144 3.9846 52.0343 2.71865 54.1083 2.71865C55.1018 2.71865 55.9556 2.79261 56.2044 2.82567V5.25534L54.766 5.25599C53.6381 5.25599 53.4197 5.79198 53.4197 6.5785V8.3129H56.1097L55.7595 11.0295H53.4197V18H58.25C58.6642 18 59 17.6642 59 17.25V0.75C59 0.335786 58.6642 0 58.25 0Z" fill="#7D818D"/>
<path fill-rule="evenodd" clip-rule="evenodd" d="M87.2894 0.054C88.2494 0.0105 88.5557 0 91 0C93.4443 0 93.7506 0.0105 94.7106 0.054C96.1739 0.12075 97.4583 0.47925 98.4895 1.5105C99.5211 2.54212 99.8792 3.82687 99.946 5.28937C99.9895 6.24937 100 6.55575 100 9C100 11.4443 99.9895 11.7506 99.946 12.7106C99.8792 14.1739 99.5208 15.4583 98.4895 16.4895C97.4579 17.5211 96.1727 17.8792 94.7106 17.946C93.7506 17.9895 93.4443 18 91 18C88.5557 18 88.2494 17.9895 87.2894 17.946C85.8261 17.8792 84.5417 17.5208 83.5105 16.4895C82.4789 15.4579 82.1207 14.1731 82.054 12.7106C82.0105 11.7506 82 11.4443 82 9C82 6.55575 82.0105 6.24937 82.054 5.28937C82.1207 3.82612 82.4792 2.54175 83.5105 1.5105C84.5421 0.478875 85.8269 0.12075 87.2894 0.054ZM94.6368 1.674C93.6876 1.6305 93.403 1.6215 91 1.6215C88.597 1.6215 88.3124 1.63087 87.3632 1.674C86.3391 1.72088 85.3885 1.926 84.6572 2.65725C83.926 3.3885 83.7209 4.33913 83.674 5.36325C83.6305 6.31238 83.6215 6.597 83.6215 9C83.6215 11.403 83.6309 11.6876 83.674 12.6368C83.7209 13.6609 83.926 14.6115 84.6572 15.3427C85.3885 16.074 86.3391 16.2791 87.3632 16.326C88.312 16.3695 88.5966 16.3785 91 16.3785C93.4034 16.3785 93.688 16.3691 94.6368 16.326C95.6609 16.2791 96.6115 16.074 97.3427 15.3427C98.074 14.6115 98.2791 13.6609 98.326 12.6368C98.3695 11.6876 98.3785 11.403 98.3785 9C98.3785 6.597 98.3691 6.31238 98.326 5.36325C98.2791 4.33913 98.074 3.3885 97.3427 2.65725C96.6115 1.926 95.6609 1.72088 94.6368 1.674Z" fill="#7D818D"/>
<path fill-rule="evenodd" clip-rule="evenodd" d="M86.9082 9.40918C86.9082 6.92403 88.9227 4.90918 91.4082 4.90918C93.8937 4.90918 95.9082 6.92366 95.9082 9.40918C95.9082 11.8947 93.8937 13.9092 91.4082 13.9092C88.9227 13.9092 86.9082 11.8943 86.9082 9.40918ZM88.4871 9.40918C88.4871 11.0224 89.795 12.3303 91.4082 12.3303C93.0214 12.3303 94.3293 11.0224 94.3293 9.40918C94.3293 7.79599 93.0214 6.48805 91.4082 6.48805C89.795 6.48805 88.4871 7.79599 88.4871 9.40918Z" fill="#7D818D"/>
<circle cx="95.5007" cy="4.50022" r="1.22727" fill="#7D818D"/>
<path fill-rule="evenodd" clip-rule="evenodd" d="M124.75 0H141.25C141.663 0 142 0.3375 142 0.75V17.25C142 17.6625 141.663 18 141.25 18H124.75C124.338 18 124 17.6625 124 17.25V0.75C124 0.3375 124.338 0 124.75 0ZM126.662 15.3375H129.325V6.75H126.662V15.3375ZM128.012 5.5875C127.15 5.5875 126.475 4.9125 126.475 4.05C126.475 3.1875 127.15 2.5125 128.012 2.5125C128.875 2.5125 129.55 3.1875 129.55 4.05C129.55 4.875 128.875 5.5875 128.012 5.5875ZM136.675 15.3375H139.3V10.6125C139.3 8.2875 138.812 6.525 136.112 6.525C134.837 6.525 133.938 7.2375 133.6 7.9125H133.562V6.75H131.012V15.3375H133.675V11.1C133.675 9.975 133.9 8.8875 135.288 8.8875C136.675 8.8875 136.675 10.1625 136.675 11.175V15.3375Z" fill="#7D818D"/>
</svg>
