<svg width="100" height="20" viewBox="0 0 100 20" fill="none" xmlns="http://www.w3.org/2000/svg">
<g opacity="0.8">
<g clip-path="url(#clip0_1_547)">
<path d="M20 10C20 4.47715 15.5229 0 10 0C4.47715 0 0 4.47715 0 10C0 14.9912 3.65684 19.1283 8.4375 19.8785V12.8906H5.89844V10H8.4375V7.79688C8.4375 5.29063 9.93047 3.90625 12.2146 3.90625C13.3084 3.90625 14.4531 4.10156 14.4531 4.10156V6.5625H13.1922C11.95 6.5625 11.5625 7.3334 11.5625 8.125V10H14.3359L13.8926 12.8906H11.5625V19.8785C16.3432 19.1283 20 14.9912 20 10Z" fill="#1D2130"/>
</g>
<g clip-path="url(#clip1_1_547)">
<path d="M46.2918 18.1246C53.8371 18.1246 57.9652 11.8719 57.9652 6.45118C57.9652 6.2754 57.9613 6.09572 57.9535 5.91993C58.7566 5.33918 59.4496 4.61985 60 3.79572C59.2521 4.12847 58.458 4.34579 57.6449 4.44025C58.5011 3.92706 59.1421 3.12086 59.4492 2.17111C58.6438 2.64843 57.763 2.98514 56.8445 3.16681C56.2257 2.50927 55.4075 2.0739 54.5164 1.92801C53.6253 1.78212 52.711 1.93384 51.9148 2.35971C51.1186 2.78559 50.4848 3.46189 50.1115 4.28406C49.7382 5.10623 49.6462 6.02848 49.8496 6.90822C48.2187 6.82638 46.6233 6.40272 45.1667 5.66472C43.71 4.92671 42.4247 3.89083 41.3941 2.62423C40.8703 3.52734 40.71 4.596 40.9459 5.61304C41.1817 6.63008 41.7959 7.51917 42.6637 8.09962C42.0122 8.07894 41.375 7.90353 40.8047 7.5879V7.63868C40.8041 8.58643 41.1317 9.50512 41.7319 10.2386C42.3321 10.9721 43.1678 11.4751 44.0969 11.6621C43.4934 11.8272 42.86 11.8513 42.2457 11.7324C42.5079 12.5475 43.018 13.2604 43.7048 13.7716C44.3916 14.2828 45.2209 14.5668 46.077 14.584C44.6237 15.7256 42.8285 16.3447 40.9805 16.3418C40.6527 16.3413 40.3253 16.3212 40 16.2817C41.8774 17.4861 44.0613 18.1258 46.2918 18.1246Z" fill="#1D2130"/>
</g>
<g clip-path="url(#clip2_1_547)">
<path d="M98.5195 0H81.4766C80.6602 0 80 0.644531 80 1.44141V18.5547C80 19.3516 80.6602 20 81.4766 20H98.5195C99.3359 20 100 19.3516 100 18.5586V1.44141C100 0.644531 99.3359 0 98.5195 0ZM85.9336 17.043H82.9648V7.49609H85.9336V17.043ZM84.4492 6.19531C83.4961 6.19531 82.7266 5.42578 82.7266 4.47656C82.7266 3.52734 83.4961 2.75781 84.4492 2.75781C85.3984 2.75781 86.168 3.52734 86.168 4.47656C86.168 5.42188 85.3984 6.19531 84.4492 6.19531ZM97.043 17.043H94.0781V12.4023C94.0781 11.2969 94.0586 9.87109 92.5352 9.87109C90.9922 9.87109 90.7578 11.0781 90.7578 12.3242V17.043H87.7969V7.49609H90.6406V8.80078H90.6797C91.0742 8.05078 92.043 7.25781 93.4844 7.25781C96.4883 7.25781 97.043 9.23438 97.043 11.8047V17.043Z" fill="#1D2130"/>
</g>
</g>
<defs>
<clipPath id="clip0_1_547">
<rect width="20" height="20" fill="white"/>
</clipPath>
<clipPath id="clip1_1_547">
<rect width="20" height="20" fill="white" transform="translate(40)"/>
</clipPath>
<clipPath id="clip2_1_547">
<rect width="20" height="20" fill="white" transform="translate(80)"/>
</clipPath>
</defs>
</svg>
